<svg width="74" height="86" viewBox="0 0 74 86" fill="none" xmlns="http://www.w3.org/2000/svg">
<path d="M67.6865 53.1289L66.3432 35.191C69.0556 34.2743 71.0285 31.7321 71.0285 28.7118C71.0285 24.9261 67.9497 21.8473 64.1657 21.8473C63.5121 21.8473 62.8912 21.9677 62.2909 22.1397L57.5592 11.8747C58.4587 10.712 59.0194 9.27235 59.0194 7.69167C59.0194 3.90595 55.9389 0.827148 52.1532 0.827148C48.6341 0.827148 45.7582 3.49659 45.3661 6.91079L23.5823 9.28438C22.5657 6.49799 19.9135 4.49075 16.7779 4.49075C12.7686 4.49075 9.50578 7.75187 9.50578 11.7577C9.50578 13.9697 10.5189 15.9287 12.0823 17.2635L7.94574 26.5773C7.67398 26.5446 7.40566 26.4947 7.12358 26.4947C3.33614 26.4947 0.255615 29.5735 0.255615 33.3592C0.255615 36.8508 2.8855 39.7112 6.26358 40.1395V50.8705C2.8855 51.2988 0.255615 54.1557 0.255615 57.6456C0.255615 61.4313 3.33614 64.5118 7.12358 64.5118C8.33446 64.5118 9.45418 64.1713 10.4432 63.6174L24.5334 67.8383C24.3717 68.4231 24.2565 69.0251 24.2565 69.6615C24.2565 73.4472 27.337 76.5278 31.1245 76.5278C33.5755 76.5278 35.7151 75.224 36.9312 73.2856L49.2945 76.2784C49.0933 76.9216 48.954 77.5942 48.954 78.3045C48.954 82.0902 52.0345 85.1708 55.8202 85.1708C59.6042 85.1708 62.683 82.0902 62.683 78.3045C62.683 76.2818 61.7869 74.4792 60.3937 73.2219L65.7808 66.667C66.142 66.7255 66.5066 66.7771 66.8833 66.7771C70.6673 66.7771 73.7461 63.6966 73.7461 59.9108C73.7444 56.4038 71.087 53.5331 67.6865 53.1289ZM65.9614 53.1409C64.1898 53.3834 62.6452 54.2899 61.5702 55.6143L51.9949 51.132C52.0311 50.8499 52.081 50.573 52.081 50.2806C52.081 48.1048 51.0438 46.187 49.4614 44.9297L60.4488 34.4703C61.522 35.1652 62.7948 35.5797 64.1657 35.5797C64.3291 35.5797 64.4839 35.5436 64.6421 35.5316L65.9614 53.1409ZM45.2164 55.4268C42.3784 55.4268 40.0685 53.1169 40.0685 50.2806C40.0685 47.446 42.3784 45.1378 45.2164 45.1378C48.051 45.1378 50.3592 47.446 50.3592 50.2806C50.3609 53.1169 48.0527 55.4268 45.2164 55.4268ZM38.4156 49.6098L13.8746 56.5414C13.6493 55.1602 13.018 53.9201 12.0978 52.9449L30.9628 35.7672C32.1805 36.8663 33.7767 37.556 35.5431 37.556C35.9405 37.556 36.324 37.5044 36.7041 37.4391L41.1624 44.7714C39.6367 45.8946 38.6134 47.6249 38.4156 49.6098ZM13.9124 34.104L28.7767 31.6839C28.9263 32.7039 29.2789 33.6551 29.8241 34.4789L10.7511 51.8458C9.9289 51.3298 8.98978 50.9995 7.98358 50.8722V40.1412C11.114 39.7421 13.5667 37.2499 13.9124 34.104ZM35.5431 25.5453C38.3794 25.5453 40.6877 27.8518 40.6877 30.6881C40.6877 33.5261 38.3794 35.836 35.5431 35.836C32.7051 35.836 30.3952 33.5278 30.3952 30.6881C30.3969 27.8518 32.7051 25.5453 35.5431 25.5453ZM42.3303 31.4621L57.3958 29.6698C57.5936 31.0802 58.211 32.3479 59.133 33.3489L47.9495 43.9923C47.1119 43.6259 46.1899 43.4178 45.2181 43.4178C44.3134 43.4178 43.4517 43.6035 42.6588 43.9235L38.4001 36.9162C40.5329 35.9323 42.0533 33.889 42.3303 31.4621ZM69.3068 28.7118C69.3068 31.5498 66.9985 33.8597 64.164 33.8597C61.3277 33.8597 59.0177 31.5515 59.0177 28.7118C59.0177 25.8755 61.3277 23.5673 64.164 23.5673C66.9985 23.5673 69.3068 25.8755 69.3068 28.7118ZM57.3768 27.9378L42.3114 29.73C42.0998 28.2285 41.4273 26.8748 40.4056 25.848L50.1098 14.2122C50.7583 14.4169 51.436 14.5579 52.1532 14.5579C53.6978 14.5579 55.1099 14.0264 56.2588 13.1613L60.7102 22.8139C58.8922 23.8837 57.6245 25.7499 57.3768 27.9378ZM52.1515 2.54715C54.9878 2.54715 57.2977 4.85539 57.2977 7.69167C57.2977 10.5297 54.9878 12.8396 52.1515 12.8396C49.3152 12.8396 47.0052 10.5314 47.0052 7.69167C47.0035 4.85539 49.3135 2.54715 52.1515 2.54715ZM45.3798 8.63939C45.6654 10.6724 46.8229 12.4182 48.4827 13.476L39.033 24.8108C38.0062 24.2002 36.8228 23.8253 35.5449 23.8253C34.2617 23.8253 33.075 24.2002 32.0464 24.8143L22.8564 15.7155C23.6012 14.5751 24.0415 13.218 24.0415 11.7577C24.0415 11.4894 23.9899 11.2331 23.9624 10.9717L45.3798 8.63939ZM11.2241 11.7595C11.2241 8.70131 13.7146 6.21247 16.7762 6.21247C19.8344 6.21247 22.3232 8.70131 22.3232 11.7595C22.3232 14.8193 19.8344 17.3099 16.7762 17.3099C13.7146 17.3099 11.2241 14.8193 11.2241 11.7595ZM13.5323 18.2318C14.5127 18.7255 15.6049 19.0299 16.7745 19.0299C18.7009 19.0299 20.4415 18.2628 21.7436 17.0364L30.6652 25.8686C29.604 26.9419 28.9246 28.3678 28.7526 29.945L13.8866 32.3651C13.5271 29.9106 11.8828 27.881 9.6451 26.9901L13.5323 18.2318ZM1.97562 33.3592C1.97562 30.5229 4.28386 28.2147 7.12358 28.2147C9.95986 28.2147 12.2681 30.5229 12.2681 33.3592C12.2681 36.1972 9.95986 38.5072 7.12358 38.5072C4.28386 38.5072 1.97562 36.1972 1.97562 33.3592ZM1.97562 57.6473C1.97562 54.8128 4.28386 52.5045 7.12358 52.5045C9.95986 52.5045 12.2681 54.8128 12.2681 57.6473C12.2681 60.4836 9.95986 62.7936 7.12358 62.7936C4.28386 62.7936 1.97562 60.4836 1.97562 57.6473ZM12.1167 62.3274C13.1212 61.2542 13.7662 59.8592 13.9193 58.3164L38.462 51.3848C38.7492 53.1409 39.7021 54.6631 41.0575 55.7055L34.3649 63.6518C33.3949 63.1255 32.3009 62.8004 31.1227 62.8004C28.5857 62.8004 26.391 64.1988 25.2025 66.2473L12.1167 62.3274ZM31.1227 74.8095C28.2847 74.8095 25.9748 72.4995 25.9748 69.6632C25.9748 66.8287 28.283 64.5204 31.1227 64.5204C33.959 64.5204 36.2673 66.8287 36.2673 69.6632C36.2673 72.4995 33.959 74.8095 31.1227 74.8095ZM37.6467 71.6911C37.8479 71.0461 37.9873 70.3736 37.9873 69.6632C37.9873 67.6784 37.1273 65.9016 35.7736 64.6477L42.547 56.6067C43.3691 56.9524 44.2704 57.1451 45.2164 57.1451C46.061 57.1451 46.8625 56.9696 47.6124 56.6893L53.1319 71.9904C51.8333 72.5442 50.7531 73.4971 50.0118 74.6822L37.6467 71.6911ZM60.963 78.3062C60.963 81.1425 58.6548 83.4525 55.8202 83.4525C52.984 83.4525 50.674 81.1425 50.674 78.3062C50.674 75.47 52.984 73.16 55.8202 73.16C58.6548 73.16 60.963 75.47 60.963 78.3062ZM58.9713 72.2432C58.0218 71.7479 56.9606 71.44 55.8185 71.44C55.4694 71.44 55.1357 71.4916 54.7986 71.5432L49.1518 55.8878C50.2285 55.131 51.0748 54.0732 51.5753 52.8365L60.6414 57.0797C60.2458 57.9466 60.0119 58.9029 60.0119 59.9143C60.0119 62.6697 61.6528 65.033 63.9988 66.1252L58.9713 72.2432ZM66.8816 65.0605C64.0418 65.0605 61.7319 62.7506 61.7319 59.9143C61.7319 57.078 64.0418 54.768 66.8816 54.768C69.7161 54.768 72.0244 57.078 72.0244 59.9143C72.0244 62.7506 69.7161 65.0605 66.8816 65.0605Z" fill="white"/>
</svg>
