<svg width="71" height="85" viewBox="0 0 71 85" fill="none" xmlns="http://www.w3.org/2000/svg">
<path d="M35.2677 17.2051C25.3075 17.2051 17.2051 25.3075 17.2051 35.2677C17.2051 39.2433 20.0401 41.6912 22.7839 44.0617C25.2232 46.169 27.5266 48.1593 27.5266 51.0287V62.7918C27.5266 63.2666 27.9119 63.6519 28.3867 63.6519H42.1488C42.6236 63.6519 43.0089 63.2666 43.0089 62.7918V51.0287C43.0089 48.1593 45.3123 46.169 47.7516 44.0617C50.4954 41.6912 53.3304 39.2433 53.3304 35.2677C53.3304 25.3075 45.228 17.2051 35.2677 17.2051ZM46.6283 42.7594C44.0049 45.0267 41.2886 47.3714 41.2886 51.0287V61.9317H29.2469V51.0287C29.2469 47.3714 26.5323 45.0267 23.9072 42.7594C21.3457 40.5455 18.9253 38.4554 18.9253 35.2677C18.9253 26.2571 26.2571 18.9253 35.2677 18.9253C44.2784 18.9253 51.6102 26.2571 51.6102 35.2677C51.6102 38.4554 49.1898 40.5455 46.6283 42.7594Z" fill="white"/>
<path d="M42.1441 72.25H28.3821C27.9073 72.25 27.522 72.6353 27.522 73.1101V76.5506C27.522 80.8186 30.9952 84.2918 35.2631 84.2918C39.5311 84.2918 43.0043 80.8186 43.0043 76.5506V73.1101C43.0043 72.6353 42.6189 72.25 42.1441 72.25ZM41.284 76.5506C41.284 79.8707 38.5832 82.5715 35.2631 82.5715C31.943 82.5715 29.2422 79.8707 29.2422 76.5506V73.9703H41.284V76.5506Z" fill="white"/>
<path d="M7.74114 34.4048H0.860127C0.385337 34.4048 0 34.7901 0 35.2649C0 35.7397 0.385337 36.125 0.860127 36.125H7.74114C8.21593 36.125 8.60127 35.7397 8.60127 35.2649C8.60127 34.7901 8.21593 34.4048 7.74114 34.4048Z" fill="white"/>
<path d="M69.6699 34.4048H62.7888C62.314 34.4048 61.9287 34.7901 61.9287 35.2649C61.9287 35.7397 62.314 36.125 62.7888 36.125H69.6699C70.1446 36.125 70.53 35.7397 70.53 35.2649C70.53 34.7901 70.1446 34.4048 69.6699 34.4048Z" fill="white"/>
<path d="M35.2649 8.60127C35.7397 8.60127 36.125 8.21593 36.125 7.74114V0.860127C36.125 0.385337 35.7397 0 35.2649 0C34.7901 0 34.4048 0.385337 34.4048 0.860127V7.74114C34.4048 8.21593 34.7901 8.60127 35.2649 8.60127Z" fill="white"/>
<path d="M11.5479 10.3317C11.2124 9.99622 10.6671 9.99622 10.3317 10.3317C9.99622 10.6671 9.99622 11.2124 10.3317 11.5479L15.1983 16.4145C15.3669 16.5831 15.587 16.6656 15.8072 16.6656C16.0274 16.6656 16.2476 16.5814 16.4162 16.4145C16.7517 16.079 16.7517 15.5337 16.4162 15.1983L11.5479 10.3317Z" fill="white"/>
<path d="M58.9844 10.3317L54.1178 15.1983C53.7823 15.5337 53.7823 16.079 54.1178 16.4145C54.2864 16.5831 54.5066 16.6656 54.7268 16.6656C54.947 16.6656 55.1672 16.5814 55.3357 16.4145L60.2024 11.5479C60.5378 11.2124 60.5378 10.6671 60.2024 10.3317C59.8669 9.99622 59.3199 9.99622 58.9844 10.3317Z" fill="white"/>
</svg>
