<svg width="102" height="85" viewBox="0 0 102 85" fill="none" xmlns="http://www.w3.org/2000/svg">
<path d="M55.9356 74.376H45.9517V75.656H55.9356V74.376Z" fill="white"/>
<path d="M77.8235 49.416L77.6955 16.392H73.7275V13.064H54.7835L51.8395 16.008L48.8955 13.064H29.8235V16.392H25.7275L25.8555 49.416H77.8235ZM73.7275 17.672H76.4155L76.5435 48.136H53.1195L55.5515 45.96H73.7275V17.672ZM52.4795 17.672V17.032L53.1195 16.392L55.2955 14.344H72.4475V16.392V17.672V44.68H55.0395L52.4795 46.984V17.672ZM31.1035 17.672V16.392V14.344H48.2555L50.4315 16.392L51.0715 17.032V17.672V46.984L48.5115 44.68H31.1035V17.672ZM29.8235 17.672V45.96H47.9995L50.4315 48.136H27.1355L27.0075 17.672H29.8235V17.672Z" fill="white"/>
<path d="M100.352 0.903809H1.53579C0.895789 0.903809 0.383789 1.41581 0.383789 2.05581V60.4238V70.1518C0.383789 70.7918 0.895789 71.3038 1.53579 71.3038H43.6478L42.3678 75.2718L35.8398 83.5918V83.8478C35.8398 84.4878 36.3518 84.9998 36.9918 84.9998L64.8958 84.8718C65.5358 84.8718 66.0478 84.3598 66.0478 83.7198V83.4638L59.2638 75.1438L58.2398 71.3038H100.48C101.12 71.3038 101.632 70.7918 101.632 70.1518V59.1438V2.05581C101.504 1.41581 100.992 0.903809 100.352 0.903809ZM64.3838 83.5918L37.3758 83.7198L43.3918 76.0398L44.9278 71.4318H56.7038L57.8558 75.7838L64.3838 83.5918ZM100.224 70.0238H1.66379V60.4238H100.224V70.0238ZM100.224 59.1438H1.66379V2.18381H100.224V59.1438Z" fill="white"/>
</svg>
